# Object Export From Tinkercad Server 2015

mtllib obj.mtl

o obj_0
v -25.503 		-43.503 		18
v -9 		-43.503 		18
v -9 		-41.75 		18
v 1 		-43.503 		18
v 1 		-41.75 		18
v 16.503 		-43.503 		0
v 16.5 		-43.5 		2
v 16.5 		-43.5 		0
v -25.503 		-43.503 		0
v -25.5 		-43.5 		0
v -25.5 		-43.5 		2
v -9 		-43.503 		16.5
v 1 		-43.503 		16.5
v 1 		-41.75 		16.5
v -9 		-41.75 		16.5
v 16.503 		-43.503 		18
v 12.303 		52.5457 		0
v 18 		60 		0
v 12.464 		52.571 		0
v 18 		60 		18
v 16.503 		28 		18
v 16.503 		38 		18
v 12.464 		55.429 		0
v 12.303 		55.4547 		0
v 16.503 		58.503 		18
v 12.883 		55.216 		0
v 13.216 		54.883 		0
v 16.503 		58.503 		0
v 13.429 		54.464 		0
v 13.503 		54 		0
v 13.429 		53.536 		0
v 16.503 		38 		16.5
v 16.503 		28 		16.5
v 12.303 		58.5 		0
v 16.5 		58.5 		0
v 12.303 		9.538 		0
v 12.303 		58.5 		2
v 16.5 		58.5 		2
v 12.303 		9.538 		2
v 12.303 		52.5457 		2
v 14.75 		38 		18
v 14.75 		28 		18
v 12.303 		55.4547 		2
v 14.75 		38 		16.5
v 14.75 		28 		16.5
v 13.216 		53.117 		0
v 13.216 		53.117 		2
v 12.883 		52.784 		0
v 12.883 		52.784 		2
v 12.464 		52.571 		2
v 12.464 		55.429 		2
v 12.883 		55.216 		2
v 13.216 		54.883 		2
v 13.429 		54.464 		2
v 13.503 		54 		2
v 13.429 		53.536 		2
v 12.3 		52.5452 		0
v 12.3 		52.5452 		2
v 12.3 		55.4552 		2
v 12.3 		55.4552 		0
v 12.3 		58.5 		0
v 12.3 		58.5 		2
v 12.3 		30.5 		2
v 12.3 		30.5 		0
v -27 		60 		18
v -27 		60 		0
v -25.503 		38 		18
v -25.503 		28 		18
v -25.503 		58.503 		18
v -25.503 		58.503 		0
v -25.503 		28 		16.5
v -25.503 		38 		16.5
v -22.429 		53.536 		2
v -22.503 		54 		2
v -22.429 		54.464 		2
v -22.216 		54.883 		2
v -21.883 		55.216 		2
v -21.464 		55.429 		2
v -21 		55.503 		2
v -21 		-37.498 		2
v -21 		52.498 		2
v -15.003 		9.498 		2
v -19.498 		54 		2
v -19.498 		-39 		2
v -15.003 		58.5 		2
v -21 		-40.503 		2
v -22.503 		-39 		2
v -25.5 		58.5 		2
v -13.748 		9.498 		0
v -13.748 		9.538 		0
v -19.498 		-39 		0
v -19.571 		-39.464 		0
v -19.784 		-39.883 		0
v -20.117 		-40.216 		0
v -20.536 		-40.429 		0
v -21 		-40.503 		0
v -21.464 		-40.429 		0
v -21.883 		-40.216 		0
v -22.216 		-39.883 		0
v -22.429 		-39.464 		0
v -22.503 		-39 		0
v -20.536 		-37.571 		0
v -21 		-37.498 		0
v -20.117 		-37.784 		0
v -19.784 		-38.117 		0
v -19.571 		-38.536 		0
v -22.429 		-38.536 		0
v -22.216 		-38.117 		0
v -21.883 		-37.784 		0
v -21.464 		-37.571 		0
v -19.784 		53.117 		0
v -20.117 		52.784 		0
v -20.536 		52.571 		0
v -21 		52.498 		0
v -21.464 		52.571 		0
v -21.883 		52.784 		0
v -22.216 		53.117 		0
v -20.536 		55.429 		0
v -21 		55.503 		0
v -20.117 		55.216 		0
v -19.784 		54.883 		0
v -19.571 		54.464 		0
v -19.498 		54 		0
v -22.216 		53.117 		2
v -21.883 		52.784 		2
v -20.536 		55.429 		2
v -20.117 		55.216 		2
v -19.784 		54.883 		2
v -19.571 		54.464 		2
v -19.571 		53.536 		0
v -19.571 		53.536 		2
v -22.429 		53.536 		0
v -22.503 		54 		0
v -22.429 		54.464 		0
v -22.216 		54.883 		0
v -21.883 		55.216 		0
v -21.464 		55.429 		0
v -15.003 		9.498 		0
v -15.003 		58.5 		0
v 7.05 		30.5 		0
v 7.05 		30.5 		2
v 7.05 		58.5 		2
v 7.05 		58.5 		0
v 12 		52.498 		2
v 11.536 		52.571 		2
v 11.117 		52.784 		2
v 10.784 		53.117 		2
v 12 		55.503 		2
v 10.571 		53.536 		2
v 10.498 		54 		2
v 10.571 		54.464 		2
v 10.784 		54.883 		2
v 11.117 		55.216 		2
v 11.536 		55.429 		2
v 12 		52.498 		0
v 11.536 		52.571 		0
v 11.117 		52.784 		0
v 10.784 		53.117 		0
v 12 		55.503 		0
v 10.571 		53.536 		0
v 10.498 		54 		0
v 10.571 		54.464 		0
v 10.784 		54.883 		0
v 11.117 		55.216 		0
v 11.536 		55.429 		0
v 18 		-45 		18
v 18 		-45 		0
v -27 		-45 		0
v -27 		-45 		18
v -25.5 		58.5 		0
v -23.75 		28 		18
v -23.75 		38 		18
v -23.75 		28 		16.5
v -23.75 		38 		16.5
v -13.748 		9.498 		2
v -13.748 		9.538 		2
v -19.571 		-39.464 		2
v -19.784 		-39.883 		2
v -20.117 		-40.216 		2
v -20.536 		-40.429 		2
v -21.464 		-40.429 		2
v -21.883 		-40.216 		2
v -22.216 		-39.883 		2
v -22.429 		-39.464 		2
v -20.536 		-37.571 		2
v -20.117 		-37.784 		2
v -19.784 		-38.117 		2
v -19.571 		-38.536 		2
v -22.429 		-38.536 		2
v -22.216 		-38.117 		2
v -21.883 		-37.784 		2
v -21.464 		-37.571 		2
v -19.784 		53.117 		2
v -20.117 		52.784 		2
v -20.536 		52.571 		2
v -21.464 		52.571 		2
# 196 vertices

g group_0_15277357

usemtl color_15277357
s 0

f 1 	169 	2
f 3 	2 	4
f 3 	4 	5
f 18 	167 	6
f 13 	16 	6
f 70 	9 	168
f 13 	6 	12
f 6 	167 	9
f 11 	10 	7
f 168 	9 	167
f 9 	12 	6
f 10 	8 	7
f 14 	13 	12
f 14 	12 	15
f 167 	18 	20
f 16 	13 	4
f 4 	13 	14
f 4 	14 	5
f 1 	12 	9
f 70 	71 	9
f 2 	12 	1
f 3 	15 	12
f 3 	12 	2
f 21 	22 	41
f 20 	25 	22
f 20 	22 	21
f 16 	166 	21
f 26 	23 	35
f 18 	6 	28
f 32 	33 	45
f 22 	32 	41
f 29 	27 	35
f 27 	26 	35
f 34 	35 	23
f 34 	23 	24
f 21 	45 	33
f 35 	31 	30
f 30 	29 	35
f 17 	19 	36
f 19 	48 	36
f 8 	36 	35
f 6 	16 	33
f 32 	28 	33
f 25 	28 	32
f 6 	33 	28
f 25 	32 	22
f 21 	33 	16
f 34 	37 	35
f 38 	35 	37
f 38 	7 	35
f 8 	35 	7
f 41 	42 	21
f 24 	43 	37
f 24 	37 	34
f 41 	44 	45
f 41 	45 	42
f 40 	17 	39
f 36 	39 	17
f 44 	32 	45
f 47 	31 	46
f 41 	32 	44
f 47 	46 	48
f 47 	48 	49
f 42 	45 	21
f 19 	50 	49
f 19 	49 	48
f 50 	19 	17
f 50 	17 	40
f 23 	51 	43
f 23 	43 	24
f 26 	52 	51
f 26 	51 	23
f 27 	53 	52
f 27 	52 	26
f 29 	54 	53
f 29 	53 	27
f 50 	39 	49
f 30 	55 	54
f 30 	54 	29
f 40 	39 	50
f 31 	56 	55
f 31 	55 	30
f 31 	47 	56
f 63 	57 	58
f 54 	38 	53
f 59 	60 	62
f 55 	56 	38
f 53 	38 	52
f 62 	60 	61
f 47 	39 	56
f 57 	63 	64
f 168 	65 	66
f 52 	38 	51
f 43 	51 	37
f 67 	68 	171
f 39 	38 	56
f 54 	55 	38
f 37 	51 	38
f 67 	65 	68
f 69 	65 	67
f 65 	169 	68
f 47 	49 	39
f 168 	66 	70
f 38 	39 	7
f 70 	18 	28
f 35 	36 	31
f 46 	31 	36
f 48 	46 	36
f 68 	71 	171
f 70 	69 	72
f 70 	72 	71
f 67 	72 	69
f 68 	1 	71
f 1 	9 	71
f 77 	88 	76
f 78 	88 	77
f 85 	88 	79
f 78 	79 	88
f 194 	195 	82
f 191 	82 	190
f 196 	125 	82
f 125 	124 	82
f 84 	177 	7
f 180 	7 	179
f 83 	131 	85
f 86 	11 	180
f 181 	11 	86
f 182 	11 	181
f 184 	11 	183
f 182 	183 	11
f 7 	180 	11
f 11 	184 	87
f 11 	87 	189
f 190 	88 	189
f 190 	82 	124
f 73 	88 	190
f 74 	88 	73
f 75 	88 	74
f 76 	88 	75
f 11 	189 	88
f 90 	36 	89
f 91 	8 	92
f 8 	93 	92
f 8 	95 	94
f 94 	93 	8
f 10 	98 	97
f 99 	10 	100
f 115 	138 	116
f 103 	110 	138
f 113 	138 	114
f 116 	138 	117
f 108 	107 	138
f 111 	138 	112
f 104 	102 	89
f 170 	139 	119
f 120 	139 	121
f 117 	124 	125
f 117 	125 	116
f 132 	124 	117
f 118 	126 	79
f 118 	79 	119
f 120 	127 	126
f 120 	126 	118
f 121 	128 	127
f 121 	127 	120
f 122 	129 	128
f 122 	128 	121
f 123 	83 	129
f 123 	129 	122
f 130 	131 	83
f 130 	83 	123
f 111 	131 	130
f 132 	73 	124
f 73 	132 	133
f 73 	133 	74
f 134 	75 	74
f 134 	74 	133
f 135 	76 	75
f 135 	75 	134
f 136 	77 	76
f 136 	76 	135
f 137 	78 	77
f 137 	77 	136
f 119 	79 	78
f 119 	78 	137
f 85 	82 	138
f 85 	138 	139
f 140 	141 	142
f 140 	142 	143
f 20 	65 	25
f 20 	18 	65
f 7 	39 	175
f 176 	175 	39
f 58 	144 	63
f 62 	148 	59
f 148 	62 	154
f 154 	142 	153
f 142 	154 	62
f 145 	141 	144
f 146 	141 	145
f 147 	141 	146
f 63 	144 	141
f 141 	147 	149
f 150 	142 	149
f 151 	142 	150
f 152 	142 	151
f 153 	142 	152
f 141 	149 	142
f 89 	36 	8
f 70 	66 	18
f 157 	140 	158
f 161 	143 	162
f 162 	143 	163
f 163 	143 	164
f 164 	143 	165
f 159 	165 	61
f 60 	159 	61
f 156 	155 	140
f 64 	140 	155
f 64 	155 	57
f 161 	160 	143
f 140 	143 	160
f 160 	158 	140
f 157 	156 	140
f 61 	165 	143
f 90 	176 	36
f 39 	36 	176
f 141 	64 	63
f 141 	140 	64
f 62 	61 	142
f 142 	61 	143
f 58 	57 	155
f 58 	155 	144
f 156 	145 	144
f 156 	144 	155
f 157 	146 	145
f 157 	145 	156
f 158 	147 	146
f 158 	146 	157
f 160 	147 	158
f 148 	159 	60
f 148 	60 	59
f 147 	160 	149
f 149 	160 	161
f 149 	161 	150
f 162 	151 	150
f 162 	150 	161
f 163 	152 	151
f 163 	151 	162
f 164 	153 	152
f 164 	152 	163
f 165 	154 	153
f 165 	153 	164
f 159 	148 	154
f 159 	154 	165
f 5 	14 	15
f 5 	15 	3
f 166 	167 	20
f 65 	168 	169
f 1 	68 	169
f 169 	168 	167
f 167 	166 	169
f 20 	21 	166
f 4 	2 	166
f 16 	4 	166
f 169 	166 	2
f 11 	88 	170
f 11 	170 	10
f 171 	172 	67
f 25 	65 	69
f 18 	66 	65
f 171 	173 	174
f 171 	174 	172
f 72 	174 	71
f 173 	71 	174
f 172 	174 	72
f 172 	72 	67
f 171 	71 	173
f 28 	69 	70
f 69 	28 	25
f 82 	185 	175
f 178 	7 	177
f 179 	7 	178
f 186 	175 	185
f 80 	185 	82
f 7 	175 	187
f 188 	7 	187
f 186 	187 	175
f 7 	188 	84
f 192 	82 	191
f 80 	82 	192
f 194 	82 	193
f 195 	81 	82
f 81 	196 	82
f 73 	190 	124
f 127 	85 	126
f 79 	126 	85
f 129 	85 	128
f 127 	128 	85
f 83 	85 	129
f 131 	193 	82
f 82 	85 	131
f 130 	138 	111
f 170 	135 	134
f 170 	134 	133
f 136 	170 	137
f 139 	120 	118
f 137 	170 	119
f 118 	119 	139
f 102 	103 	138
f 112 	138 	113
f 138 	89 	102
f 114 	138 	115
f 110 	109 	138
f 109 	108 	138
f 106 	105 	8
f 89 	8 	105
f 105 	104 	89
f 139 	138 	130
f 139 	130 	123
f 139 	123 	122
f 122 	121 	139
f 99 	98 	10
f 96 	95 	10
f 95 	8 	10
f 91 	106 	8
f 97 	96 	10
f 170 	136 	135
f 133 	132 	170
f 10 	170 	132
f 117 	138 	10
f 107 	10 	138
f 132 	117 	10
f 101 	10 	107
f 101 	100 	10
f 85 	139 	170
f 85 	170 	88
f 175 	89 	138
f 175 	138 	82
f 90 	89 	175
f 90 	175 	176
f 92 	177 	84
f 92 	84 	91
f 93 	178 	177
f 93 	177 	92
f 94 	179 	178
f 94 	178 	93
f 95 	180 	179
f 95 	179 	94
f 180 	95 	96
f 180 	96 	86
f 97 	181 	86
f 97 	86 	96
f 98 	182 	181
f 98 	181 	97
f 99 	183 	182
f 99 	182 	98
f 100 	184 	183
f 100 	183 	99
f 184 	100 	101
f 184 	101 	87
f 101 	189 	87
f 102 	185 	80
f 102 	80 	103
f 104 	186 	185
f 104 	185 	102
f 105 	187 	186
f 105 	186 	104
f 106 	188 	187
f 106 	187 	105
f 188 	106 	84
f 91 	84 	106
f 107 	189 	101
f 108 	190 	189
f 108 	189 	107
f 109 	191 	190
f 109 	190 	108
f 110 	192 	191
f 110 	191 	109
f 103 	80 	192
f 103 	192 	110
f 131 	111 	193
f 193 	111 	112
f 193 	112 	194
f 113 	195 	194
f 113 	194 	112
f 195 	113 	114
f 195 	114 	81
f 115 	196 	81
f 115 	81 	114
f 116 	125 	196
f 116 	196 	115
# 392 faces

 #end of obj_0

