# Object Export From Tinkercad Server 2015

mtllib obj.mtl

o obj_0
v 30 		56 		0
v 30 		56 		1
v 30 		-44 		1
v 30 		-44 		0
v -10 		56 		1
v -10 		56 		0
v -10 		-44 		0
v -10 		-44 		1
v 26.5 		50.998 		1
v 26.036 		51.071 		1
v 25.617 		51.284 		1
v 25.284 		51.617 		1
v 25.071 		52.036 		1
v 24.998 		52.5 		1
v 27.716 		-39.617 		0
v 27.716 		-39.617 		1
v 27.383 		-39.284 		1
v 27.383 		-39.284 		0
v 25.071 		52.964 		1
v 27.929 		-40.036 		0
v 27.929 		-40.036 		1
v 28.003 		-40.5 		0
v 28.003 		-40.5 		1
v 27.929 		52.964 		1
v 28.003 		52.5 		1
v 27.929 		52.036 		1
v -6.964 		-41.929 		0
v -6.964 		-41.929 		1
v -6.5 		-42.003 		1
v -6.5 		-42.003 		0
v 27.716 		51.617 		1
v -7.383 		-41.716 		0
v -7.383 		-41.716 		1
v 27.383 		51.284 		1
v -7.716 		-41.383 		0
v 26.964 		51.071 		1
v -7.716 		-41.383 		1
v -7.929 		-40.964 		0
v -7.929 		-40.964 		1
v 25.284 		53.383 		1
v 25.617 		53.716 		1
v 27.929 		52.964 		0
v 26.036 		53.929 		1
v 28.003 		52.5 		0
v 26.5 		54.003 		1
v 27.929 		52.036 		0
v 26.964 		53.929 		1
v 27.716 		51.617 		0
v 27.383 		53.716 		1
v 27.716 		53.383 		1
v -6.036 		-39.071 		0
v -6.5 		-38.998 		0
v -5.617 		-39.284 		0
v -5.284 		-39.617 		0
v 24.998 		56 		1
v -5.071 		-40.036 		0
v -4.998 		-40.5 		0
v -5.071 		-40.964 		0
v -5.071 		-40.964 		1
v -5.284 		-41.383 		0
v -5.284 		-41.383 		1
v 24.998 		56 		0
v 24.998 		52.5 		0
v -5.617 		-41.716 		0
v -5.617 		-41.716 		1
v 24.998 		-40.5 		0
v -6.036 		-41.929 		0
v -6.036 		-41.929 		1
v 27.383 		51.284 		0
v 26.964 		51.071 		0
v -8.002 		-40.5 		0
v -8.002 		-40.5 		1
v 26.5 		50.998 		0
v -7.929 		-40.036 		0
v -7.929 		-40.036 		1
v 25.284 		53.383 		0
v -7.716 		-39.617 		0
v -7.716 		-39.617 		1
v 25.617 		53.716 		0
v -7.383 		-39.284 		0
v -7.383 		-39.284 		1
v 26.036 		53.929 		0
v 26.5 		54.003 		0
v -6.964 		-39.071 		0
v -6.964 		-39.071 		1
v 26.964 		53.929 		0
v -6.5 		-38.998 		1
v 27.383 		53.716 		0
v -6.036 		-39.071 		1
v 27.716 		53.383 		0
v -5.617 		-39.284 		1
v -5.284 		-39.617 		1
v 26.036 		-41.929 		0
v 26.036 		-41.929 		1
v 26.5 		-42.003 		1
v 26.5 		-42.003 		0
v -5.071 		-40.036 		1
v 25.617 		-41.716 		0
v 25.617 		-41.716 		1
v -4.998 		-40.5 		1
v 25.284 		-41.383 		0
v 25.284 		-41.383 		1
v 25.071 		-40.964 		0
v 25.071 		-40.964 		1
v 27.929 		-40.964 		0
v 27.929 		-40.964 		1
v 27.716 		-41.383 		0
v 27.716 		-41.383 		1
v 27.383 		-41.716 		0
v 27.383 		-41.716 		1
v 26.964 		-41.929 		0
v 26.964 		-41.929 		1
v 24.998 		-40.5 		1
v 25.071 		-40.036 		0
v 25.071 		-40.036 		1
v 25.284 		-39.617 		0
v 25.284 		-39.617 		1
v 25.617 		-39.284 		0
v 25.617 		-39.284 		1
v 26.036 		-39.071 		0
v 26.036 		-39.071 		1
v 26.5 		-38.998 		0
v 26.5 		-38.998 		1
v 26.964 		-39.071 		0
v 26.964 		-39.071 		1
v 24.998 		-44 		0
v 24.998 		-44 		1
v 26.036 		51.071 		0
v 25.617 		51.284 		0
v 25.284 		51.617 		0
v 25.071 		52.036 		0
v 25.071 		52.964 		0
# 132 vertices

g group_0_15277357

usemtl color_15277357
s 0

f 1 	2 	4
f 3 	4 	2
f 5 	6 	7
f 5 	7 	8
f 14 	5 	13
f 15 	16 	17
f 15 	17 	18
f 20 	21 	16
f 20 	16 	15
f 22 	23 	21
f 22 	21 	20
f 27 	28 	29
f 27 	29 	30
f 32 	33 	28
f 32 	28 	27
f 36 	9 	123
f 35 	37 	33
f 35 	33 	32
f 121 	123 	9
f 38 	39 	37
f 38 	37 	35
f 45 	55 	43
f 50 	2 	49
f 24 	2 	50
f 63 	131 	6
f 55 	45 	47
f 49 	2 	47
f 55 	47 	2
f 52 	6 	130
f 130 	129 	52
f 2 	24 	25
f 2 	25 	26
f 131 	130 	6
f 84 	6 	52
f 62 	76 	6
f 59 	58 	60
f 59 	60 	61
f 64 	65 	61
f 64 	61 	60
f 67 	68 	65
f 67 	65 	64
f 69 	34 	31
f 69 	31 	48
f 68 	67 	30
f 68 	30 	29
f 70 	36 	34
f 70 	34 	69
f 71 	72 	38
f 39 	38 	72
f 36 	70 	73
f 36 	73 	9
f 74 	75 	72
f 74 	72 	71
f 76 	40 	19
f 77 	78 	75
f 77 	75 	74
f 79 	41 	40
f 79 	40 	76
f 80 	81 	78
f 80 	78 	77
f 82 	43 	41
f 82 	41 	79
f 83 	45 	43
f 83 	43 	82
f 84 	85 	81
f 84 	81 	80
f 86 	47 	45
f 86 	45 	83
f 52 	87 	85
f 52 	85 	84
f 88 	49 	47
f 88 	47 	86
f 51 	89 	87
f 51 	87 	52
f 90 	50 	49
f 90 	49 	88
f 53 	91 	89
f 53 	89 	51
f 42 	24 	50
f 42 	50 	90
f 54 	92 	91
f 54 	91 	53
f 93 	94 	95
f 93 	95 	96
f 56 	97 	92
f 56 	92 	54
f 98 	99 	94
f 98 	94 	93
f 57 	100 	97
f 57 	97 	56
f 101 	102 	99
f 101 	99 	98
f 103 	104 	102
f 103 	102 	101
f 100 	57 	59
f 58 	59 	57
f 48 	18 	69
f 69 	124 	70
f 105 	106 	22
f 23 	22 	106
f 106 	105 	107
f 106 	107 	108
f 109 	110 	108
f 109 	108 	107
f 132 	6 	76
f 111 	112 	110
f 111 	110 	109
f 112 	111 	96
f 112 	96 	95
f 82 	79 	62
f 76 	62 	79
f 66 	113 	103
f 104 	103 	113
f 114 	115 	113
f 114 	113 	66
f 88 	1 	90
f 116 	117 	115
f 116 	115 	114
f 118 	119 	117
f 118 	117 	116
f 86 	1 	88
f 83 	62 	86
f 82 	62 	83
f 1 	86 	62
f 120 	121 	119
f 120 	119 	118
f 1 	20 	46
f 1 	46 	44
f 1 	44 	42
f 42 	90 	1
f 122 	123 	121
f 122 	121 	120
f 124 	125 	123
f 124 	123 	122
f 93 	126 	98
f 18 	17 	125
f 18 	125 	124
f 63 	6 	132
f 53 	51 	128
f 57 	56 	114
f 129 	128 	51
f 51 	52 	129
f 7 	67 	126
f 30 	67 	7
f 6 	74 	7
f 127 	126 	4
f 127 	4 	3
f 65 	127 	61
f 126 	127 	7
f 8 	7 	127
f 55 	1 	62
f 2 	1 	55
f 5 	62 	6
f 55 	62 	5
f 128 	10 	9
f 128 	9 	73
f 129 	11 	10
f 129 	10 	128
f 85 	5 	81
f 87 	5 	85
f 78 	81 	5
f 130 	12 	11
f 130 	11 	129
f 131 	13 	12
f 131 	12 	130
f 13 	131 	63
f 13 	63 	14
f 132 	19 	14
f 132 	14 	63
f 76 	19 	132
f 89 	5 	87
f 91 	5 	89
f 92 	97 	115
f 102 	104 	100
f 24 	42 	44
f 24 	44 	25
f 46 	26 	25
f 46 	25 	44
f 127 	102 	100
f 59 	127 	100
f 59 	61 	127
f 68 	127 	65
f 113 	115 	97
f 115 	117 	92
f 91 	92 	117
f 121 	12 	5
f 5 	14 	19
f 19 	40 	5
f 41 	55 	40
f 41 	43 	55
f 5 	40 	55
f 48 	31 	26
f 48 	26 	46
f 98 	126 	101
f 104 	113 	100
f 107 	4 	109
f 111 	109 	4
f 103 	58 	66
f 112 	3 	110
f 108 	110 	3
f 95 	127 	112
f 29 	8 	68
f 127 	68 	8
f 97 	100 	113
f 8 	37 	39
f 8 	39 	72
f 8 	72 	75
f 78 	5 	75
f 8 	75 	5
f 119 	5 	117
f 56 	54 	114
f 73 	120 	128
f 5 	91 	117
f 121 	5 	119
f 128 	118 	54
f 116 	114 	54
f 54 	53 	128
f 31 	34 	17
f 16 	31 	17
f 21 	31 	16
f 23 	3 	21
f 125 	17 	34
f 34 	36 	125
f 123 	125 	36
f 121 	9 	10
f 121 	10 	11
f 121 	11 	12
f 13 	5 	12
f 31 	3 	26
f 31 	21 	3
f 106 	3 	23
f 108 	3 	106
f 2 	26 	3
f 112 	127 	3
f 94 	127 	95
f 99 	127 	94
f 102 	127 	99
f 33 	8 	28
f 29 	28 	8
f 37 	8 	33
f 58 	57 	66
f 114 	66 	57
f 118 	128 	120
f 116 	54 	118
f 124 	69 	18
f 15 	48 	20
f 48 	15 	18
f 122 	70 	124
f 120 	73 	122
f 70 	122 	73
f 107 	105 	4
f 4 	105 	22
f 22 	20 	4
f 48 	46 	20
f 4 	20 	1
f 67 	64 	126
f 93 	96 	126
f 96 	111 	126
f 4 	126 	111
f 30 	7 	27
f 35 	32 	7
f 27 	7 	32
f 38 	35 	7
f 58 	103 	60
f 103 	101 	60
f 101 	126 	60
f 64 	60 	126
f 71 	38 	7
f 71 	7 	74
f 6 	77 	74
f 77 	6 	80
f 84 	80 	6
# 272 faces

 #end of obj_0

